name C:\Users\u0150099\Documents\master_thesis\3dpredictsim\Results\debug\Fal_s1_mtp_sc_cspx10_oy_MTPm_k1_d01_PF_Gefen2002_ls146_ig21_test.mot
datacolumns 126
datarows 4
range 0.00000000 0.03475498
endheader
time	pelvis_tilt	pelvis_list	pelvis_rotation	pelvis_tx	pelvis_ty	pelvis_tz	hip_flexion_l	hip_adduction_l	hip_rotation_l	hip_flexion_r	hip_adduction_r	hip_rotation_r	knee_angle_l	knee_angle_r	ankle_angle_l	ankle_angle_r	subtalar_angle_l	subtalar_angle_r	mtp_angle_l	mtp_angle_r	lumbar_extension	lumbar_bending	lumbar_rotation	arm_flex_l	arm_add_l	arm_rot_l	arm_flex_r	arm_add_r	arm_rot_r	elbow_flex_l	elbow_flex_r	pro_sup_l	pro_sup_r	glut_med1_l/activation	glut_med2_l/activation	glut_med3_l/activation	glut_min1_l/activation	glut_min2_l/activation	glut_min3_l/activation	semimem_l/activation	semiten_l/activation	bifemlh_l/activation	bifemsh_l/activation	sar_l/activation	add_long_l/activation	add_brev_l/activation	add_mag1_l/activation	add_mag2_l/activation	add_mag3_l/activation	tfl_l/activation	pect_l/activation	grac_l/activation	glut_max1_l/activation	glut_max2_l/activation	glut_max3_l/activation	iliacus_l/activation	psoas_l/activation	quad_fem_l/activation	gem_l/activation	peri_l/activation	rect_fem_l/activation	vas_med_l/activation	vas_int_l/activation	vas_lat_l/activation	med_gas_l/activation	lat_gas_l/activation	soleus_l/activation	tib_post_l/activation	flex_dig_l/activation	flex_hal_l/activation	tib_ant_l/activation	per_brev_l/activation	per_long_l/activation	per_tert_l/activation	ext_dig_l/activation	ext_hal_l/activation	ercspn_l/activation	intobl_l/activation	extobl_l/activation	glut_med1_r/activation	glut_med2_r/activation	glut_med3_r/activation	glut_min1_r/activation	glut_min2_r/activation	glut_min3_r/activation	semimem_r/activation	semiten_r/activation	bifemlh_r/activation	bifemsh_r/activation	sar_r/activation	add_long_r/activation	add_brev_r/activation	add_mag1_r/activation	add_mag2_r/activation	add_mag3_r/activation	tfl_r/activation	pect_r/activation	grac_r/activation	glut_max1_r/activation	glut_max2_r/activation	glut_max3_r/activation	iliacus_r/activation	psoas_r/activation	quad_fem_r/activation	gem_r/activation	peri_r/activation	rect_fem_r/activation	vas_med_r/activation	vas_int_r/activation	vas_lat_r/activation	med_gas_r/activation	lat_gas_r/activation	soleus_r/activation	tib_post_r/activation	flex_dig_r/activation	flex_hal_r/activation	tib_ant_r/activation	per_brev_r/activation	per_long_r/activation	per_tert_r/activation	ext_dig_r/activation	ext_hal_r/activation	ercspn_r/activation	intobl_r/activation	extobl_r/activation	
          0.00000000	         -0.68467506	          1.42145031	          1.44835040	          0.00000000	          0.88415144	         -0.03264794	        -16.52639124	          5.16083623	         -3.05231395	         33.23496696	          2.24653969	          4.06480436	        -15.35302357	        -16.76849179	         18.31139925	         -1.77991655	         11.84905444	          2.56162001	          0.31877002	         10.69408345	         -8.88449491	         -3.05026788	         -0.98548184	         12.90051635	        -30.98238382	          3.38357566	          6.28068678	        -31.69883741	          3.40126866	         55.83530939	         45.28039928	         86.51662706	         86.51662706	          0.49154895	          0.41273044	          0.35568608	          0.46788748	          0.45308502	          0.43413697	          0.39073671	          0.42742851	          0.41133283	          0.46163940	          0.45731983	          0.42961107	          0.41468935	          0.42346723	          0.41209075	          0.41924588	          0.45341984	          0.44366510	          0.43576481	          0.39254552	          0.39006053	          0.38978633	          0.51916469	          0.52405749	          0.37501836	          0.42281606	          0.42046932	          0.44830022	          0.40450693	          0.40090246	          0.38280202	          0.50109852	          0.46781886	          0.56156342	          0.48702080	          0.46856031	          0.46355179	          0.43815671	          0.40907051	          0.35744008	          0.42968717	          0.37755551	          0.41101789	          0.45233802	          0.30393445	          0.32944192	          0.30342761	          0.36603388	          0.41695592	          0.39944525	          0.40361590	          0.41328672	          0.49182128	          0.45654138	          0.47271502	          0.57201291	          0.49390181	          0.47154421	          0.44310024	          0.43157299	          0.41295760	          0.35035296	          0.44413533	          0.45042708	          0.46318414	          0.39765075	          0.37282929	          0.36291974	          0.54879974	          0.54232881	          0.49593891	          0.46781317	          0.44996451	          0.38064919	          0.32174289	          0.31556539	          0.29797734	          0.25369329	          0.33467577	          0.12449489	          0.30098367	          0.54202115	          0.48058826	          0.63560766	          0.41007393	          0.38218562	          0.48581025	          0.44930322	          0.36575394	          0.61308989	          0.48784725	          0.41282310	
          0.01158499	         -0.71353754	          1.07822253	          1.32035278	          0.01792237	          0.88177634	         -0.03297059	        -16.89177354	          4.70479587	         -3.41927752	         33.30624766	          2.95256376	          3.97998862	        -16.81252370	        -17.73091413	         17.18229260	         -2.11548718	         12.10128436	          2.55068644	          1.14509401	         10.42215383	         -8.44993045	         -2.44760947	         -0.75080787	         13.46990736	        -31.04132833	          3.02142313	          6.87207986	        -31.85719000	          3.38036995	         56.92860277	         45.97640876	         86.51662706	         86.51662706	          0.49295732	          0.40060781	          0.33629759	          0.46806342	          0.45106987	          0.42836130	          0.38992962	          0.43475645	          0.41338439	          0.46605821	          0.45590033	          0.43288927	          0.41781343	          0.42478987	          0.41356391	          0.42039946	          0.44939620	          0.44378898	          0.43612284	          0.39143822	          0.38886546	          0.38900801	          0.51460558	          0.51825774	          0.36085406	          0.41296076	          0.41184568	          0.41873633	          0.39165092	          0.38712064	          0.36500332	          0.49732260	          0.46797211	          0.53754249	          0.48779878	          0.47430455	          0.46692378	          0.42939386	          0.39844907	          0.33771280	          0.42352093	          0.35896429	          0.39741590	          0.45904415	          0.31160873	          0.33216545	          0.32112246	          0.37519308	          0.42049140	          0.40328144	          0.40709727	          0.41687908	          0.51333552	          0.47060279	          0.49958919	          0.55940893	          0.48455448	          0.46902872	          0.44555740	          0.43532524	          0.42049402	          0.37759360	          0.43786806	          0.44839098	          0.46366350	          0.40487531	          0.38732037	          0.38547948	          0.51885737	          0.51229393	          0.48876913	          0.46354857	          0.44702072	          0.36012703	          0.32603191	          0.32007158	          0.30230306	          0.25544630	          0.33365152	          0.12722022	          0.28950642	          0.55970628	          0.49404293	          0.62600377	          0.43155788	          0.40440708	          0.49433144	          0.41399599	          0.33577159	          0.60348704	          0.47263273	          0.41098489	
          0.02316999	         -0.76409934	          0.65550130	          1.23124309	          0.03639321	          0.87969124	         -0.03347686	        -17.16314937	          4.13566046	         -3.67225265	         33.29617814	          3.63377013	          4.03686407	        -18.40744957	        -18.93803319	         15.71017288	         -3.65538987	         12.38346744	          2.61869137	          2.11341306	         10.51735968	         -7.92706610	         -1.72315260	         -0.54952390	         14.06652065	        -31.07586774	          2.67860221	          7.49595798	        -32.02821756	          3.30427996	         57.97829090	         46.65013556	         86.51662706	         86.51662706	          0.49380517	          0.38338664	          0.31338064	          0.46792880	          0.44738560	          0.42005877	          0.38939042	          0.44487666	          0.41561973	          0.47128675	          0.45337692	          0.44527960	          0.42603818	          0.42707754	          0.41562801	          0.42266254	          0.44516544	          0.44502987	          0.43762425	          0.39024830	          0.38754877	          0.38823755	          0.51214338	          0.51642880	          0.34420522	          0.40115034	          0.40040420	          0.38631799	          0.37599930	          0.37042771	          0.34414347	          0.47922154	          0.46183757	          0.48667632	          0.48517711	          0.48084705	          0.47019420	          0.42951001	          0.38318879	          0.31516712	          0.41775802	          0.34180959	          0.38225895	          0.49052668	          0.34660753	          0.34473422	          0.37641634	          0.39912931	          0.42572208	          0.41714663	          0.41903128	          0.42587004	          0.53226927	          0.48666335	          0.52419429	          0.53903246	          0.46911167	          0.46508760	          0.44888735	          0.43899180	          0.42994319	          0.41347347	          0.43176255	          0.44568574	          0.46369785	          0.41705398	          0.40894991	          0.41290906	          0.48299801	          0.47743965	          0.47143049	          0.45655451	          0.44306532	          0.33889340	          0.33772758	          0.33215368	          0.31469697	          0.25328684	          0.33151216	          0.12724431	          0.28558078	          0.57521864	          0.50900293	          0.63939873	          0.43397720	          0.40737270	          0.50007423	          0.38088807	          0.30965822	          0.57625888	          0.44682435	          0.40065588	
          0.03475498	         -0.82374235	          0.12106527	          1.20423836	          0.05524071	          0.87804971	         -0.03407550	        -17.28748142	          3.39634135	         -3.82412491	         33.33807588	          4.31640973	          3.98465333	        -20.20711458	        -20.70931403	         13.85571880	         -5.26070013	         12.74088181	          2.30329081	          3.19682477	          9.25444353	         -7.35094828	         -0.87595266	         -0.38756564	         14.64340953	        -31.08372191	          2.37304576	          8.06811729	        -32.20354606	          3.18693756	         58.94272706	         47.24126200	         86.51662706	         86.51662706	          0.50687060	          0.36278094	          0.28776491	          0.47293524	          0.44522528	          0.41004836	          0.38906433	          0.45771709	          0.41702214	          0.48705944	          0.45270207	          0.45541928	          0.43242279	          0.42679585	          0.41727325	          0.42400578	          0.44200536	          0.44648172	          0.43857387	          0.38853959	          0.38526576	          0.38617943	          0.52229181	          0.52538325	          0.32206034	          0.38578093	          0.38643157	          0.35228438	          0.35396822	          0.34748352	          0.31810039	          0.44882974	          0.44843908	          0.42716918	          0.47800932	          0.48754914	          0.47284630	          0.45709592	          0.36436756	          0.29207460	          0.41440197	          0.32855128	          0.36613145	          0.51582757	          0.35158385	          0.36876567	          0.41919229	          0.42600214	          0.43988345	          0.42925713	          0.42988096	          0.43501972	          0.54667862	          0.50279577	          0.54634672	          0.52023882	          0.45480588	          0.45781472	          0.44714620	          0.44082637	          0.43785567	          0.45024258	          0.42403324	          0.44240397	          0.46282377	          0.43462688	          0.44220408	          0.44818148	          0.44577425	          0.44161425	          0.45947616	          0.45211899	          0.44237126	          0.31784456	          0.35025528	          0.34523465	          0.32853944	          0.24869495	          0.32826759	          0.12447851	          0.28435901	          0.59030673	          0.52584616	          0.67309950	          0.42969826	          0.40675948	          0.49762497	          0.34583233	          0.28293461	          0.54715069	          0.44007891	          0.39009752	
